<svg width="53" height="63" viewBox="0 0 53 63" fill="none" xmlns="http://www.w3.org/2000/svg">
<path fill-rule="evenodd" clip-rule="evenodd" d="M26.5556 8.36438C27.9393 8.36438 29.061 7.24266 29.061 5.85897C29.061 4.47527 27.9393 3.35356 26.5556 3.35356C25.1719 3.35356 24.0502 4.47527 24.0502 5.85897C24.0502 7.24266 25.1719 8.36438 26.5556 8.36438ZM31.5664 5.85897C31.5664 8.19374 29.9696 10.1555 27.8085 10.7119V15.0317C30.7419 15.1503 33.7608 15.8323 36.8042 17.2386C37.4437 17.5341 38.0831 17.861 38.7219 18.2206L40.5137 15.2342L40.5727 15.2696C39.6527 14.3611 39.0825 13.0991 39.0825 11.704C39.0825 8.93663 41.3259 6.6932 44.0933 6.6932C46.8608 6.6932 49.1042 8.93663 49.1042 11.704C49.1042 14.4714 46.8608 16.7149 44.0933 16.7149C43.5765 16.7149 43.078 16.6366 42.6089 16.4913L42.6621 16.5233L40.8503 19.5429C44.468 22.0059 48.052 25.5663 51.524 30.4516C52.2368 31.4545 52.2645 32.8589 51.4662 33.879C48.789 37.3002 45.0081 41.022 40.4772 43.8528C40.641 44.1068 40.8181 44.3862 40.9994 44.6753C41.5019 45.4769 42.0489 46.3732 42.4597 47.0541C42.9717 46.8777 43.5212 46.7818 44.0932 46.7818C46.8606 46.7818 49.104 49.0253 49.104 51.7927C49.104 54.5601 46.8606 56.8035 44.0932 56.8035C41.3257 56.8035 39.0823 54.5601 39.0823 51.7927C39.0823 50.5032 39.5694 49.3276 40.3695 48.4396C39.9587 47.7577 39.3923 46.8288 38.8766 46.0061C38.6719 45.6796 38.4773 45.3732 38.3048 45.1073C35.7754 46.4497 33.0494 47.4876 30.18 48.0417C29.2633 48.2187 28.3327 48.3462 27.3903 48.4183V52.6954C29.7603 53.0929 31.5663 55.1541 31.5663 57.637C31.5663 60.4044 29.3229 62.6478 26.5555 62.6478C23.7881 62.6478 21.5446 60.4044 21.5446 57.637C21.5446 55.4554 22.9389 53.5994 24.8849 52.9114V48.4767C21.8818 48.3855 18.7812 47.7066 15.6466 46.2675C15.0657 46.0008 14.4845 45.7084 13.9035 45.3894L12.3217 48.0257C13.3679 48.944 14.0282 50.2912 14.0282 51.7927C14.0282 54.5601 11.7848 56.8035 9.01738 56.8035C6.24998 56.8035 4.00655 54.5601 4.00655 51.7927C4.00655 49.0253 6.24998 46.7818 9.01738 46.7818C9.38152 46.7818 9.73659 46.8207 10.0787 46.8945L11.761 44.0905C8.05406 41.6268 4.36649 38.0324 0.777864 33.0673C0.0472363 32.0565 0.0191377 30.6303 0.83595 29.603C3.59288 26.1356 7.48718 22.3608 12.1357 19.5194C11.9949 19.2998 11.8457 19.064 11.6936 18.8213C11.217 18.0611 10.7004 17.2158 10.2979 16.5497C9.8891 16.6574 9.45983 16.7149 9.01715 16.7149C6.24975 16.7149 4.00632 14.4714 4.00632 11.704C4.00632 8.93663 6.24975 6.6932 9.01715 6.6932C11.7846 6.6932 14.028 8.93663 14.028 11.704C14.028 13.1264 13.4354 14.4103 12.4836 15.3223C12.8744 15.9684 13.3648 16.7703 13.8164 17.4906C13.9949 17.7753 14.1657 18.0447 14.3208 18.2853C16.8116 16.9931 19.4844 15.9946 22.2878 15.456C23.2782 15.2657 24.2842 15.133 25.3031 15.0651V10.712C23.1418 10.1558 21.5447 8.19389 21.5447 5.85897C21.5447 3.09157 23.7882 0.848145 26.5556 0.848145C29.323 0.848145 31.5664 3.09157 31.5664 5.85897ZM9.01715 14.2094C10.4009 14.2094 11.5226 13.0877 11.5226 11.704C11.5226 10.3203 10.4009 9.19862 9.01715 9.19862C7.63344 9.19862 6.51173 10.3203 6.51173 11.704C6.51173 13.0877 7.63344 14.2094 9.01715 14.2094ZM2.79701 31.1623C7.1932 25.6333 14.4572 19.5118 22.7605 17.9164C26.8807 17.1247 31.2717 17.4421 35.7532 19.5129C40.2467 21.5893 44.9052 25.4634 49.4818 31.903C49.5903 32.0556 49.5685 32.2387 49.4931 32.335C45.1686 37.8613 37.9838 43.9829 29.705 45.5817C25.5967 46.3752 21.2012 46.0608 16.692 43.9906C12.1705 41.9147 7.46332 38.04 2.80841 31.5997C2.69726 31.4459 2.71949 31.2598 2.79701 31.1623ZM41.5877 51.7927C41.5877 50.409 42.7094 49.2873 44.0932 49.2873C45.4769 49.2873 46.5986 50.409 46.5986 51.7927C46.5986 53.1764 45.4769 54.2981 44.0932 54.2981C42.7094 54.2981 41.5877 53.1764 41.5877 51.7927ZM24.0501 57.637C24.0501 56.2533 25.1718 55.1316 26.5555 55.1316C27.9392 55.1316 29.0609 56.2533 29.0609 57.637C29.0609 59.0207 27.9392 60.1424 26.5555 60.1424C25.1718 60.1424 24.0501 59.0207 24.0501 57.637ZM44.0933 14.2094C45.4771 14.2094 46.5988 13.0877 46.5988 11.704C46.5988 10.3203 45.4771 9.19862 44.0933 9.19862C42.7096 9.19862 41.5879 10.3203 41.5879 11.704C41.5879 13.0877 42.7096 14.2094 44.0933 14.2094ZM6.51197 51.7927C6.51197 50.409 7.63368 49.2873 9.01738 49.2873C10.4011 49.2873 11.5228 50.409 11.5228 51.7927C11.5228 53.1764 10.4011 54.2981 9.01738 54.2981C7.63367 54.2981 6.51197 53.1764 6.51197 51.7927ZM24.0498 22.9091C23.1313 23.1695 22.2539 23.5729 21.4515 24.1091C19.9408 25.1185 18.7633 26.5532 18.068 28.2318C17.3727 29.9105 17.1908 31.7576 17.5452 33.5396C17.8997 35.3216 18.7746 36.9585 20.0594 38.2432C21.3441 39.528 22.981 40.4029 24.763 40.7574C26.545 41.1118 28.3922 40.9299 30.0708 40.2346C31.7494 39.5393 33.1841 38.3618 34.1936 36.8511C34.7297 36.0487 35.1331 35.1713 35.3935 34.2528H27.3904C25.5454 34.2528 24.0498 32.7572 24.0498 30.9122V22.9091ZM25.7208 20.0853C26.1808 20.0523 26.5552 20.4293 26.5552 20.8906V30.9122C26.5552 31.3735 26.9291 31.7474 27.3904 31.7474H37.412C37.8733 31.7474 38.2503 32.1218 38.2174 32.5818C38.0729 34.6005 37.4064 36.5524 36.2767 38.243C34.992 40.1658 33.166 41.6644 31.0295 42.5493C28.8931 43.4342 26.5423 43.6658 24.2743 43.2146C22.0062 42.7635 19.9229 41.6499 18.2878 40.0148C16.6526 38.3797 15.5391 36.2964 15.088 34.0283C14.6368 31.7603 14.8684 29.4095 15.7533 27.2731C16.6382 25.1366 18.1368 23.3106 20.0595 22.0259C21.7502 20.8962 23.7021 20.2297 25.7208 20.0853ZM36.005 26.3678C36.0557 26.4903 36.1031 26.614 36.1472 26.7387H31.5663L31.5663 22.1577C31.691 22.2018 31.8147 22.2493 31.9372 22.3C32.8491 22.6777 33.6777 23.2314 34.3756 23.9293C35.0736 24.6273 35.6272 25.4559 36.005 26.3678ZM38.2474 29.2441C38.7086 29.2441 39.0861 28.8696 39.0477 28.4099C38.9617 27.3797 38.7166 26.3672 38.3197 25.409C37.816 24.1931 37.0778 23.0883 36.1472 22.1577C35.2166 21.2271 34.1119 20.4889 32.896 19.9853C31.9377 19.5884 30.9253 19.3433 29.895 19.2572C29.4354 19.2188 29.0609 19.5964 29.0609 20.0576V28.409C29.0609 28.8702 29.4348 29.2441 29.896 29.2441H38.2474Z" fill="#8FCFD3"/>
</svg>
