<svg width="57" height="64" viewBox="0 0 57 64" fill="none" xmlns="http://www.w3.org/2000/svg">
<path fill-rule="evenodd" clip-rule="evenodd" d="M26.3306 1.28725C24.9837 1.46008 23.8491 2.26206 23.2943 3.43313L23.0469 3.95534L23.0228 5.81628L22.9986 7.67729L22.2501 7.88853C20.9707 8.24965 19.1545 9.01161 17.8873 9.71902L17.4406 9.96835L16.2262 8.75541C14.7444 7.27553 14.3181 7.0167 13.2526 6.95025C12.4888 6.90258 11.9865 7.00187 11.2645 7.34306C10.8392 7.54401 10.523 7.81775 9.20193 9.12874C7.78232 10.5376 7.61713 10.7294 7.36897 11.2566C7.01016 12.0189 6.87781 12.7896 6.99162 13.454C7.15364 14.3999 7.3692 14.7286 8.71874 16.0871C9.39648 16.7694 9.95099 17.3649 9.95099 17.4105C9.95099 17.4561 9.80852 17.7503 9.63437 18.0643C8.96412 19.273 8.24921 21.0732 7.74315 22.8266C7.72198 22.8999 7.33234 22.9232 6.13277 22.9232C4.40519 22.9232 3.9515 22.9856 3.30644 23.3122C2.44064 23.7506 1.82416 24.4858 1.46907 25.5036C1.29716 25.9962 1.27359 26.2105 1.23906 27.5976C1.18984 29.572 1.29167 30.58 1.60883 31.2577C2.08276 32.2705 2.75031 32.9236 3.68356 33.2876C4.07087 33.4387 4.31286 33.4618 5.92849 33.5019L7.73936 33.5468L7.98227 34.358C8.33768 35.5448 8.96899 37.0734 9.51778 38.0761L9.99889 38.9551L8.77838 40.1999C7.78023 41.2178 7.51507 41.536 7.32323 41.9458C6.99733 42.6423 6.8955 43.279 7.00444 43.9387C7.20787 45.1703 7.60091 45.756 9.40127 47.5107C10.4544 48.5369 10.7267 48.7594 11.2518 49.0222C12.0536 49.4235 12.7814 49.5542 13.5278 49.4309C14.4738 49.2747 14.8077 49.0598 16.1354 47.7517L17.3363 46.5686L17.9483 47.1841C18.6441 47.8841 18.9617 48.0705 19.338 48C19.8917 47.896 20.2528 47.3156 20.0695 46.824C19.9492 46.5014 17.9276 44.4975 17.62 44.396C17.1093 44.2274 16.9632 44.3261 15.3207 45.9494C13.643 47.6075 13.4695 47.721 12.7743 47.6134C12.1177 47.5119 11.7338 47.2353 10.4372 45.9296C9.15249 44.6358 8.93329 44.3271 8.82683 43.6616C8.71835 42.9831 8.83509 42.8031 10.4484 41.16C12.0232 39.5561 12.199 39.3038 12.0373 38.8784C11.9923 38.7602 11.7123 38.2376 11.4148 37.717C10.5766 36.2497 9.88965 34.542 9.48858 32.9287C9.14623 31.5518 9.20085 31.5766 6.50626 31.5766C4.57787 31.5766 4.41461 31.5658 4.10966 31.4182C3.7473 31.2427 3.40943 30.8486 3.25784 30.4246C3.10239 29.9898 3.11259 26.2575 3.2702 25.8802C3.45053 25.4485 3.74691 25.1015 4.08045 24.9313C4.35952 24.7889 4.53769 24.7775 6.47357 24.7775C8.73465 24.7775 8.9686 24.7425 9.21437 24.3674C9.28329 24.2622 9.46215 23.7117 9.61189 23.1441C10.0498 21.484 10.8113 19.6793 11.6845 18.2316C12.3819 17.0755 12.4208 17.1802 10.6174 15.3577C9.79407 14.5257 9.06039 13.7266 8.98684 13.5821C8.81632 13.2467 8.85402 12.4304 9.06047 11.9906C9.27649 11.5302 11.6651 9.16992 12.153 8.93466C12.6362 8.70156 13.3345 8.68324 13.7368 8.89309C13.8856 8.97066 14.6702 9.69183 15.4803 10.4956C16.7265 11.7319 16.9968 11.9641 17.2354 12.0028C17.4852 12.0434 17.6354 11.9811 18.5474 11.4588C20.1656 10.5322 21.6029 9.94177 23.3885 9.47008C23.8805 9.34013 24.3602 9.18475 24.4543 9.12488C24.8033 8.90275 24.822 8.7809 24.8626 6.45346L24.9012 4.23858L25.1343 3.90713C25.2797 3.70053 25.523 3.49447 25.7806 3.35988L26.1937 3.14409H28.2621H30.3306L30.7437 3.35988C31.0013 3.49447 31.2446 3.70045 31.3899 3.90713L31.623 4.23858L31.6617 6.49572C31.7097 9.30204 31.6686 9.20755 32.9751 9.51891C34.6257 9.91218 36.3641 10.6187 38.0578 11.5846C39.421 12.3619 39.1659 12.4696 41.5716 10.1006C42.7413 8.9488 42.9685 8.79636 43.527 8.78855C44.2545 8.77851 44.5044 8.94246 45.9749 10.3952C46.824 11.234 47.4029 11.8698 47.4943 12.0636C47.71 12.5219 47.7641 12.9901 47.6496 13.4079C47.5635 13.7223 47.3591 13.9624 46.0285 15.3129C44.4393 16.9258 44.3161 17.1034 44.4827 17.5417C44.5262 17.6561 44.7365 18.0399 44.9499 18.3946C45.7995 19.8063 46.5359 21.5785 46.9934 23.3131C47.1969 24.0845 47.3157 24.3961 47.462 24.5426L47.658 24.7389L49.9227 24.7775L52.1872 24.8161L52.5591 25.0479C52.8177 25.2091 53.0041 25.4092 53.171 25.7046L53.411 26.1296L53.4353 28.0489C53.4558 29.6737 53.4397 30.0312 53.3306 30.3784C53.1681 30.8948 52.8496 31.2848 52.4209 31.4924C52.1068 31.6444 51.9607 31.6538 49.9087 31.6538H47.73L47.4668 31.9049C47.2387 32.1225 47.1675 32.2911 46.9329 33.1676C46.4599 34.9347 45.8305 36.4487 44.9085 38.0368C44.1294 39.3789 44.0813 39.233 45.9083 41.0754C46.7324 41.9064 47.4625 42.6977 47.5308 42.8337C47.7062 43.183 47.6886 43.8955 47.4941 44.3244C47.2734 44.8108 44.8992 47.1957 44.376 47.4564C43.9586 47.6644 43.2862 47.714 42.889 47.5661C42.7694 47.5215 42.0283 46.8484 41.2422 46.0701C40.4561 45.2918 39.7269 44.5981 39.6218 44.5286C39.3245 44.3317 38.9161 44.3684 38.5689 44.6233C38.4032 44.7449 37.8642 45.2582 37.3712 45.764C36.6938 46.4589 36.466 46.7436 36.4387 46.9293C36.327 47.6906 37.0924 48.2707 37.7499 47.9232C37.8647 47.8625 38.2351 47.533 38.5732 47.1909L39.1877 46.5688L40.3116 47.6746C41.8283 49.167 42.31 49.4305 43.5214 49.4299C44.223 49.4296 44.7841 49.2863 45.4375 48.9404C45.9808 48.6527 48.4933 46.2138 48.9188 45.561C49.4501 44.7458 49.6952 43.6131 49.5185 42.7892C49.3346 41.9318 49.0943 41.5799 47.7864 40.2533L46.5526 39.0018L47.2122 37.665C47.9222 36.2261 48.1662 35.6236 48.5517 34.358L48.7988 33.5468L50.564 33.5001C52.442 33.4505 52.7287 33.4002 53.4278 32.9971C54.2943 32.4975 55.0556 31.3157 55.2387 30.1858C55.3626 29.4216 55.4163 26.6318 55.3071 26.6318C55.2628 26.6318 55.2267 26.4963 55.2267 26.3309C55.2267 25.3427 54.4308 24.023 53.4883 23.4484C52.7498 22.9982 52.6146 22.9735 50.6413 22.9275L48.7988 22.8846L48.5512 22.0664C48.1902 20.8738 47.6449 19.5466 47.0476 18.4068L46.523 17.4058L47.734 16.2048C48.7308 15.2163 48.9891 14.9134 49.1943 14.4922C49.5523 13.7572 49.6416 13.0784 49.4829 12.2983C49.2549 11.1775 49.0342 10.8514 47.3884 9.20345C46.5691 8.38324 45.7521 7.63572 45.5459 7.51759C44.7192 7.04436 43.7259 6.84688 42.9239 6.99623C42.0453 7.15987 41.6871 7.40038 40.331 8.73741L39.072 9.97855L38.2449 9.54178C36.8558 8.80818 35.1147 8.11166 33.8493 7.78322L33.5259 7.69923L33.5016 5.82733L33.4773 3.95534L33.2289 3.43089C32.9209 2.78065 32.2695 2.08305 31.678 1.7699C30.8395 1.32603 30.5495 1.27674 28.6098 1.24862C27.6325 1.2344 26.6068 1.25178 26.3306 1.28725ZM27.9145 11.9445C27.8295 11.9818 27.673 12.1058 27.5668 12.22C27.3746 12.4267 27.3735 12.4356 27.3501 14.1337C27.3244 15.9865 27.3545 16.172 27.7241 16.4352C28.1748 16.7561 28.8995 16.56 29.1061 16.0612C29.1701 15.9066 29.1907 15.323 29.1742 14.1289L29.1507 12.4182L28.9117 12.1794C28.6566 11.9244 28.2032 11.8176 27.9145 11.9445ZM16.7722 16.5649C16.5003 16.6171 16.1491 16.997 16.0921 17.301C16.0094 17.7422 16.2059 18.0257 17.4342 19.2371C18.36 20.1501 18.6266 20.3707 18.8561 20.4138C19.2578 20.4891 19.6824 20.2669 19.8698 19.8831C20.1208 19.3693 20.0078 19.1813 18.6207 17.8039C17.9471 17.135 17.3404 16.5877 17.2724 16.5877C17.2046 16.5877 17.1027 16.5752 17.0461 16.5599C16.9895 16.5447 16.8663 16.5469 16.7722 16.5649ZM39.2715 16.5939C38.9222 16.6928 36.6403 19.0211 36.5703 19.3501C36.4454 19.9369 37.0574 20.5275 37.6721 20.4137C37.91 20.3697 38.1633 20.1557 39.1669 19.1503C40.0678 18.2478 40.3888 17.876 40.4285 17.6889C40.5743 17.0024 39.9422 16.4042 39.2715 16.5939ZM27.2577 18.7944C27.1515 18.8125 26.8212 18.8662 26.5237 18.9137C25.2548 19.116 23.6257 19.798 22.4675 20.6117C21.2246 21.4849 19.926 23.0338 19.2599 24.4375C16.9251 29.3577 18.9506 35.2128 23.8376 37.6699C26.5694 39.0434 29.9511 39.0453 32.6768 37.6749C33.705 37.1579 34.4226 36.6336 35.303 35.7561C36.4859 34.5769 37.2058 33.4202 37.7275 31.8602C38.9134 28.3151 37.9864 24.3893 35.3331 21.7199C33.9223 20.3005 32.1947 19.3661 30.1937 18.9399C29.6418 18.8223 27.667 18.7245 27.2577 18.7944ZM1.25273 28.177C1.25273 29.0057 1.26409 29.3447 1.278 28.9303C1.29183 28.516 1.29183 27.8381 1.278 27.4237C1.26409 27.0094 1.25273 27.3484 1.25273 28.177ZM11.9109 27.9389C11.4298 28.2323 11.2879 28.7038 11.5362 29.184C11.7552 29.6076 11.9369 29.645 13.7755 29.645C15.116 29.645 15.4888 29.622 15.6709 29.5278C16.1182 29.2965 16.2756 28.6122 15.9706 28.2245C15.6528 27.8205 15.5009 27.7907 13.76 27.791C12.3143 27.7913 12.1286 27.8061 11.9109 27.9389ZM40.8842 27.9389C40.4031 28.2323 40.2612 28.7038 40.5095 29.184C40.7286 29.6076 40.9102 29.645 42.7488 29.645C44.0894 29.645 44.4622 29.622 44.6443 29.5278C45.0916 29.2965 45.2489 28.6122 44.944 28.2245C44.6261 27.8205 44.4742 27.7907 42.7334 27.791C41.2876 27.7913 41.102 27.8061 40.8842 27.9389ZM17.4642 38.2404C16.2612 39.4314 16.0545 39.6916 16.055 40.0136C16.0554 40.2873 16.3342 40.6819 16.6251 40.8206C17.1304 41.0616 17.3112 40.9586 18.5946 39.6987C19.8742 38.4424 20.0631 38.159 19.9164 37.7148C19.7837 37.3126 19.4358 37.0622 19.0097 37.0622C18.6548 37.0622 18.6523 37.0641 17.4642 38.2404ZM36.9552 37.2297C36.8381 37.3218 36.6948 37.5108 36.6367 37.6498C36.4356 38.1313 36.5453 38.3212 37.7156 39.5159C38.3112 40.1239 38.9161 40.694 39.0597 40.7828C39.7269 41.1952 40.6207 40.5469 40.4343 39.7857C40.4019 39.6534 39.9091 39.0991 39.1292 38.3177L37.8761 37.0622H37.5221C37.276 37.0622 37.1033 37.1133 36.9552 37.2297ZM27.9145 40.9178C27.8295 40.9551 27.673 41.0791 27.5668 41.1933C27.3746 41.4 27.3735 41.4089 27.3501 43.107C27.3244 44.9598 27.3545 45.1453 27.7241 45.4085C28.1748 45.7295 28.8995 45.5333 29.1061 45.0345C29.1701 44.8799 29.1907 44.2963 29.1742 43.1022L29.1507 41.3915L28.9117 41.1527C28.6566 40.8977 28.2032 40.7909 27.9145 40.9178ZM20.0535 50.1778C19.6428 50.4324 19.5945 50.6711 19.6222 52.3069C19.651 54.0052 19.7009 54.174 20.3387 54.7355C20.9558 55.2787 20.618 55.2574 28.6098 55.2574C35.7637 55.2574 35.7968 55.2567 36.1429 55.0941C36.5536 54.9011 37.0041 54.4654 37.2001 54.0714C37.4007 53.6683 37.4528 50.8724 37.2664 50.5119C37.0308 50.0564 36.3499 49.8958 35.9586 50.2035C35.5684 50.5104 35.5248 50.7 35.5248 52.0858V53.3645H28.4939H21.4631V52.082C21.4631 51.0961 21.436 50.7425 21.3459 50.5527C21.1223 50.0815 20.4999 49.901 20.0535 50.1778ZM22.3186 57.2828C21.4844 57.4448 21.2744 58.4952 21.9806 58.9739C22.1886 59.1148 22.4326 59.1205 28.2621 59.1205C34.0917 59.1205 34.3356 59.1148 34.5436 58.9739C35.117 58.5853 35.117 57.8015 34.5436 57.4129C34.3361 57.2723 34.0854 57.2659 28.4167 57.2563C25.1659 57.2509 22.4217 57.2628 22.3186 57.2828ZM24.2501 61.1454C23.4155 61.3097 23.2059 62.3583 23.9122 62.837C24.1181 62.9765 24.3298 62.9836 28.2621 62.9836C32.1945 62.9836 32.4062 62.9765 32.6121 62.837C33.1854 62.4484 33.1854 61.6646 32.6121 61.276C32.4069 61.137 32.1877 61.1288 28.4167 61.1189C26.2282 61.1132 24.3533 61.1251 24.2501 61.1454Z" fill="#8FCFD3" stroke="#8FCFD3" stroke-width="0.515081"/>
</svg>
