<svg width="131" height="30" viewBox="0 0 131 30" fill="none" xmlns="http://www.w3.org/2000/svg">
<g clip-path="url(#clip0_17416_3119)">
<path d="M30.242 21.3627L32.717 18.3157C34.3198 19.5947 36.1024 20.2629 37.9737 20.249C39.1745 20.24 39.8187 19.8125 39.8141 19.1084L39.8138 19.0617C39.8094 18.3815 39.2755 18.0095 37.078 17.5097C33.6307 16.7365 30.967 15.7708 30.945 12.3903L30.9447 12.3436C30.9249 9.29114 33.2898 7.06769 37.1715 7.03881C39.9207 7.01835 42.0738 7.75317 43.8389 9.17232L41.6185 12.4055C40.1327 11.3603 38.5123 10.8083 37.0805 10.8189C35.9953 10.827 35.4668 11.3004 35.4706 11.8872L35.4709 11.9338C35.4758 12.6847 36.0318 13.0099 38.2765 13.5093C42.0008 14.3031 44.3197 15.5074 44.3396 18.5825L44.3399 18.6292C44.3617 21.9858 41.7645 24.0015 37.8368 24.0307C34.9721 24.0508 32.2405 23.1549 30.242 21.3627Z" fill="white"/>
<path d="M45.2795 17.4006L45.2792 17.3539C45.2551 13.644 47.8462 10.6908 51.5429 10.6633C55.863 10.6311 57.8706 13.8328 57.8948 17.5654C57.8967 17.8468 57.8988 18.1762 57.8772 18.4817L49.514 18.5439C49.8695 19.9269 50.8674 20.6236 52.2309 20.6135C53.2702 20.6057 54.0996 20.2008 54.9941 19.302L57.4325 21.3269C56.2418 22.8854 54.515 23.9305 52.0203 23.949C48.0951 23.9757 45.3051 21.3439 45.2795 17.4006ZM53.7746 16.2332C53.604 14.8262 52.7898 13.94 51.5878 13.949C50.433 13.9576 49.6529 14.8795 49.4309 16.2655L53.7746 16.2332Z" fill="white"/>
<path d="M59.3256 6.44873L63.7151 6.41606L63.8263 23.5534L59.4368 23.5861L59.3256 6.44873Z" fill="white"/>
<path d="M80.3174 21.8342L81.9402 19.1229C83.3782 20.075 84.9534 20.5555 86.2461 20.5458C87.0085 20.5402 87.3535 20.3029 87.3506 19.8575L87.3503 19.8108C87.3471 19.3174 86.6528 19.1118 85.3329 18.7456C82.8563 18.1065 80.8876 17.2757 80.871 14.7166L80.8707 14.67C80.8532 11.9708 82.9693 10.4521 85.8564 10.4306C87.6817 10.4171 89.5789 10.943 91.018 11.8712L89.535 14.7001C88.2363 13.9817 86.8241 13.5467 85.8307 13.5541C85.1614 13.5591 84.8154 13.8203 84.8176 14.1724L84.8179 14.2191C84.8212 14.7125 85.5392 14.9419 86.858 15.3308C89.3349 16.0165 91.3037 16.8713 91.3197 19.3358L91.32 19.3825C91.3382 22.1762 89.2913 23.6464 86.2415 23.6691C84.1417 23.6848 82.0591 23.0895 80.3174 21.8342Z" fill="white"/>
<path d="M92.5774 6.20117L96.967 6.1685L97.0233 14.8552L100.392 10.5812L105.359 10.5442L101.048 15.6707L105.557 23.244L100.729 23.28L98.1826 18.9793L97.0588 20.3253L97.0782 23.3071L92.6886 23.3398L92.5774 6.20117Z" fill="white"/>
<path d="M110.621 6.06679L106.047 6.10083L106.068 9.38798L110.643 9.35394L110.621 6.06679Z" fill="#FF8D3D"/>
<path d="M110.556 10.5057L106.167 10.5383L106.249 23.239L110.639 23.2063L110.556 10.5057Z" fill="white"/>
<path d="M65.3103 17.2629L65.31 17.2162C65.2831 13.0849 67.8075 10.5536 70.7653 10.5316C72.6602 10.5175 73.7747 11.3774 74.6117 12.334L74.6 10.5258L78.9895 10.4931L79.0736 23.4524L74.6841 23.4851L74.6731 21.7955C73.8256 22.858 72.745 23.7822 70.8737 23.7961C67.9171 23.8169 65.3366 21.3236 65.3103 17.2629ZM74.7125 17.1462L74.7122 17.0996C74.7013 15.4326 73.5611 14.2436 72.1517 14.254C70.7423 14.2645 69.5951 15.4467 69.6061 17.1376L69.6064 17.1842C69.6174 18.8739 70.78 20.0628 72.1893 20.0523C73.5987 20.0418 74.7234 18.8359 74.7125 17.1462Z" fill="white"/>
<path d="M25.3019 11.6188L20.8753 11.6476C20.824 11.648 20.7742 11.668 20.7403 11.7035L20.0696 12.3852C20.02 12.4353 20.0078 12.5074 20.0381 12.5675C20.0685 12.6288 20.1344 12.6677 20.2071 12.6672L24.0678 12.6421L21.476 15.3274L12.8266 15.3837C12.5215 15.3857 12.2751 15.6153 12.2772 15.8956L12.3384 24.0681C12.3405 24.3485 12.5902 24.5748 12.8953 24.5728L21.7899 24.5148C21.8327 24.5146 21.8769 24.509 21.9252 24.4969C21.9366 24.4942 21.9466 24.4916 21.9608 24.4862C21.9935 24.4755 22.0262 24.4635 22.0589 24.4463C22.0646 24.4436 22.0802 24.4357 22.0844 24.433C22.1228 24.4105 22.1568 24.3854 22.1851 24.3577C22.1865 24.3551 22.1992 24.3419 22.2021 24.3392C22.2247 24.3155 22.2445 24.2905 22.2614 24.2629C22.267 24.255 22.2741 24.2458 22.2769 24.2392L25.8351 17.9006C25.8759 17.8283 25.8967 17.7469 25.8961 17.6644L25.8546 12.1235C25.8568 11.8431 25.607 11.6168 25.3019 11.6188ZM24.7625 13.455L24.7931 17.5472L22.3267 21.9425L22.2824 16.0256L24.7625 13.455ZM21.1785 16.3459L21.232 23.5032L13.4423 23.554L13.3887 16.3966L21.1785 16.3459Z" fill="#1E9EA6"/>
<path d="M22.2389 3.92699C22.2372 3.89163 22.2327 3.86153 22.2254 3.83145C22.2225 3.8223 22.221 3.81445 22.2166 3.80662C22.2166 3.80531 22.2166 3.80531 22.2166 3.80531C22.2064 3.77263 22.1919 3.74259 22.1746 3.71126C22.1731 3.70865 22.1645 3.6943 22.163 3.69038C22.1414 3.65777 22.1169 3.62649 22.0896 3.60047C22.0882 3.59917 22.0782 3.59006 22.0767 3.58876C22.0523 3.56665 22.0251 3.54718 21.9979 3.53033C21.9893 3.52383 21.9792 3.51735 21.9707 3.51348C21.9678 3.51218 21.9635 3.50959 21.9592 3.50831C21.9263 3.4915 21.8905 3.47732 21.8563 3.46706C21.8534 3.46577 21.8348 3.46196 21.832 3.46067C21.7977 3.45172 21.7634 3.44671 21.7249 3.44434L21.7121 3.44311C21.7049 3.44185 21.6921 3.44193 21.685 3.44198L15.6431 3.48133C15.5875 3.48169 15.5319 3.48992 15.4793 3.50598L7.82579 5.75397C7.81441 5.75667 7.80304 5.76198 7.79736 5.76464C7.78314 5.76997 7.76892 5.7753 7.75186 5.78196C7.73481 5.78993 7.71776 5.7979 7.70215 5.80718C7.68937 5.81381 7.6766 5.82175 7.66525 5.82969C7.64822 5.84028 7.63264 5.85348 7.61422 5.86932C7.60572 5.87592 7.59722 5.88384 7.58731 5.89307C7.57316 5.90757 7.56044 5.92207 7.5463 5.93788C7.53924 5.9471 7.53217 5.955 7.52512 5.96553C7.51242 5.98264 7.50258 6.00104 7.49274 6.02076C7.48993 6.02601 7.48008 6.04311 7.47869 6.04836C7.46608 6.07726 7.45632 6.10745 7.4467 6.15467C7.4426 6.17828 7.43991 6.20057 7.43868 6.22678C7.43872 6.23201 7.43734 6.23726 7.43737 6.2425L7.49853 14.4151C7.50063 14.6954 7.75039 14.9217 8.05548 14.9197L16.9501 14.8618C16.9872 14.8615 17.0256 14.8573 17.0555 14.8519C17.0612 14.8506 17.0669 14.8492 17.0726 14.8479C17.1053 14.8411 17.1366 14.8317 17.1665 14.8197C17.1779 14.8157 17.1878 14.8104 17.1963 14.8064C17.2205 14.7958 17.2432 14.7839 17.2631 14.7706C17.2744 14.764 17.2843 14.7561 17.2957 14.7469C17.3141 14.7336 17.3311 14.7191 17.3353 14.7138C17.3424 14.7086 17.3509 14.7006 17.3566 14.6954L22.1391 9.83433C22.2325 9.7394 22.2829 9.61725 22.282 9.49019L22.2405 3.94925C22.2405 3.94139 22.2404 3.93484 22.2389 3.92699ZM21.1418 4.77383L21.1756 9.29827L17.4911 13.0439L17.4421 6.49173L21.1418 4.77383ZM19.336 4.47382L16.753 5.67355L11.6164 5.70701L15.7334 4.49729L19.336 4.47382ZM16.3372 6.6915L16.3908 13.8489L8.60103 13.8996L8.54747 6.74223L16.3372 6.6915Z" fill="#FF8D3D"/>
<path d="M10.9871 16.0861L12.493 15.1868L10.644 15.1989L10.2135 15.4021L4.00765 15.4425L7.19714 14.1314L7.18933 13.0874L1.33483 15.4953C1.32203 15.4993 1.31066 15.5046 1.30356 15.5086L1.0051 15.6337L1.07822 15.6882C1.01896 15.7711 0.985466 15.8683 0.98623 15.9704L1.04737 24.143C1.04946 24.4233 1.29923 24.6496 1.60432 24.6476L10.4989 24.5897C10.66 24.5887 10.8121 24.5222 10.9139 24.4102L11.9099 23.378L11.8985 21.8585L11.0383 22.7509L10.9885 16.0861L10.9871 16.0861ZM9.88462 16.4195L9.93817 23.5768L2.14844 23.6276L2.0949 16.4702L9.88462 16.4195V16.4195Z" fill="#1E71BC"/>
</g>
<defs>
<clipPath id="clip0_17416_3119">
<rect width="114.811" height="29.1462" fill="white" transform="matrix(0.999972 -0.00744186 0.00648917 0.999979 0.967529 0.854492)"/>
</clipPath>
</defs>
</svg>
