<svg width="61" height="61" viewBox="0 0 61 61" fill="none" xmlns="http://www.w3.org/2000/svg">
<path fill-rule="evenodd" clip-rule="evenodd" d="M46.9798 1.88039C45.0194 2.00826 43.0882 2.67747 41.336 3.8361C40.3896 4.46197 38.8761 5.96258 38.2318 6.914C36.1583 9.97562 35.6356 13.7041 36.7918 17.1852C37.9836 20.7737 40.8462 23.5544 44.5007 24.6733C49.1564 26.0987 54.2176 24.4581 57.1658 20.5678C58.2781 19.1002 59.0135 17.4581 59.3838 15.6155C59.5871 14.604 59.568 12.2165 59.3485 11.2072C58.3453 6.59388 54.9262 3.1075 50.4211 2.10402C49.8273 1.97175 49.4547 1.9301 48.1529 1.85025C47.9513 1.83794 47.4234 1.8515 46.9798 1.88039ZM46.107 3.82781C44.6687 4.08752 43.2439 4.73488 41.8074 5.78133L41.6312 5.90971L42.1407 6.42311L42.6503 6.93658L41.9938 7.59611L41.3374 8.25564L40.8572 7.7792C40.5931 7.51715 40.3429 7.30275 40.3011 7.30275C40.1833 7.30275 39.206 8.82066 38.9204 9.44741C38.7797 9.75595 38.5808 10.2823 38.4782 10.617C38.2789 11.2673 38.0593 12.43 38.1178 12.5247C38.1372 12.5562 38.5719 12.5818 39.0837 12.5818L40.0142 12.5816L39.9917 13.4962L39.9692 14.4106L39.0385 14.4312L38.1078 14.4516L38.1318 14.7449C38.213 15.7397 38.7481 17.3413 39.3321 18.3377C39.7232 19.0051 40.215 19.6893 40.3056 19.692C40.3449 19.6932 40.5931 19.4797 40.8572 19.2177L41.3374 18.7412L41.9938 19.4008L42.6503 20.0603L42.1388 20.5762C41.8324 20.8852 41.6582 21.1131 41.7045 21.1447C41.747 21.1735 42.0017 21.3561 42.2705 21.5503C42.9298 22.0266 44.0398 22.5826 44.8486 22.8416C45.4484 23.0337 46.5815 23.2869 46.8412 23.2869C46.9229 23.2869 46.9431 23.0985 46.9431 22.3337V21.3805H47.8574H48.7717L48.7923 22.3154L48.8128 23.2502L49.1965 23.2299C49.7257 23.2017 50.8455 22.9079 51.6072 22.5973C52.3218 22.306 52.9897 21.9261 53.6773 21.4198C54.1115 21.1001 54.1346 21.0688 54.0254 20.9481C53.961 20.8769 53.9241 20.8029 53.9435 20.7836C53.9628 20.7643 53.8062 20.5855 53.5954 20.3863L53.2121 20.0241L53.5778 20.4273L53.9434 20.8306L53.5423 20.446L53.1412 20.0614L53.7982 19.4014L54.4552 18.7412L54.9518 19.234C55.4439 19.7224 55.4496 19.7255 55.5877 19.5822C56.0522 19.1002 56.9009 17.5482 57.2108 16.6146C57.4123 16.0075 57.6444 14.9624 57.6465 14.6533L57.6481 14.415H56.6949H55.7417V13.4984V12.5819H56.7053H57.669L57.6245 12.1603C57.4731 10.7235 56.5857 8.5952 55.7051 7.55703L55.4583 7.26609L54.9567 7.76087L54.4552 8.25564L53.7988 7.59611L53.1423 6.93658L53.6498 6.42516C53.9289 6.1439 54.1426 5.90128 54.1246 5.88596C54.1066 5.87063 53.828 5.67501 53.5054 5.45123C52.757 4.93204 51.7423 4.42392 50.9223 4.15784C50.2034 3.9246 48.96 3.67831 48.8487 3.74716C48.8072 3.77282 48.7761 4.18196 48.7761 4.70416V5.61635H47.8596H46.9431V4.66317C46.9431 3.57112 47.0327 3.66064 46.107 3.82781ZM7.0374 3.86294C5.83969 4.14515 4.96438 5.20157 4.87742 6.46967C4.84156 6.99275 4.8607 7.1138 5.07297 7.70771C5.46612 8.80783 5.53504 8.69587 4.4644 8.69587C3.70163 8.69587 3.46868 8.72307 3.11777 8.85329C2.07007 9.24204 1.41743 10.0393 1.23142 11.1578C1.16895 11.5334 1.72715 16.707 1.89139 17.2745C2.12316 18.0753 2.68216 18.7016 3.51194 19.0904L3.93985 19.2909L6.53266 19.3135C8.14647 19.3276 9.26015 19.3073 9.48225 19.2596C10.128 19.1211 10.5131 18.8825 11.2018 18.194L11.8648 17.5311L11.2385 18.1177L10.6121 18.7043L11.2301 18.0665C11.5699 17.7156 11.8728 17.444 11.9032 17.4627C11.9336 17.4815 11.9791 17.4633 12.0045 17.4223C12.033 17.3764 12.5541 17.3478 13.366 17.3478H14.6815V17.9368C14.6815 18.643 14.8034 18.9766 15.1354 19.179C15.3688 19.3213 15.4979 19.327 18.5162 19.3272C21.9235 19.3275 21.9013 19.33 22.2272 18.9158C22.3792 18.7225 22.3803 18.684 22.3803 13.4812V8.24127L22.1376 7.99858C21.965 7.82598 21.8008 7.7421 21.5693 7.70822C21.3903 7.68205 19.9016 7.67083 18.2612 7.68329C15.3626 7.70536 15.2728 7.71035 15.0717 7.86022C14.9579 7.94505 14.8109 8.15952 14.7451 8.33681L14.6253 8.65921L13.4253 8.67651L12.2252 8.69389L10.8438 6.38015C9.80772 4.64477 9.40453 4.03106 9.23075 3.92511C9.0352 3.80589 8.86744 3.78499 8.15586 3.79093C7.69209 3.79482 7.18881 3.82723 7.0374 3.86294ZM7.2812 5.74481C6.96526 5.9059 6.77117 6.16751 6.71618 6.50641C6.68135 6.7208 6.77044 7.01445 7.19468 8.08407C7.48137 8.80688 7.71578 9.49595 7.71563 9.61532C7.71548 9.73469 7.64876 9.9416 7.56737 10.075C7.31859 10.4831 7.09907 10.5289 5.3903 10.5291C3.60594 10.5291 3.45871 10.5684 3.19299 11.1155L3.03271 11.4454L3.32732 14.085C3.59011 16.4394 3.6404 16.753 3.79269 16.9881C4.11076 17.479 4.20102 17.4945 6.75072 17.4945C8.16018 17.4945 9.10471 17.4651 9.23259 17.4175C9.34609 17.3751 9.81843 16.9644 10.2822 16.5046C10.7459 16.0449 11.2183 15.6342 11.3318 15.5918C11.4523 15.5468 12.192 15.5148 13.1098 15.5148H14.6815V13.0218V10.5289H13.0978C11.8214 10.5289 11.4679 10.5069 11.2754 10.4156C11.0768 10.3213 10.7996 9.9081 9.6283 7.95935L8.21994 5.61635L7.87628 5.6165C7.68726 5.6165 7.41948 5.67428 7.2812 5.74481ZM28.246 5.80985C27.3827 5.88911 26.066 6.08041 25.1961 6.25301L24.2358 6.44357L24.4556 7.33142C24.5765 7.81974 24.6786 8.22426 24.6827 8.23042C24.6866 8.23651 25.0636 8.16414 25.5204 8.06948C27.267 7.70771 28.0702 7.63607 30.3357 7.64011C32.3911 7.6437 33.4117 7.72758 34.7368 8.0018C34.9311 8.04198 34.9605 8.02644 34.9729 7.87686C34.9808 7.78294 35.0545 7.37915 35.1367 6.97962C35.219 6.58009 35.2777 6.24677 35.2673 6.23878C35.226 6.20755 34.3266 6.05071 33.5619 5.94139C32.783 5.83009 29.0356 5.73741 28.246 5.80985ZM53.8354 7.55938C54.1764 7.90216 54.4719 8.18261 54.492 8.18261C54.5122 8.18261 54.2497 7.90216 53.9087 7.55938C53.5676 7.2166 53.2722 6.93614 53.252 6.93614C53.2318 6.93614 53.4943 7.2166 53.8354 7.55938ZM46.9431 10.3999V13.1304L45.6428 14.4322L44.3424 15.734L45.0001 16.3947L45.6578 17.0554L47.1119 15.6069C47.9117 14.8102 48.6133 14.0693 48.6711 13.9604C48.7574 13.7977 48.7761 13.2195 48.7761 10.7159V7.66936H47.8596H46.9431V10.3999ZM16.5486 9.59289C16.5291 9.64392 16.5217 11.4344 16.5321 13.5718L16.5512 17.4578H18.5309H20.5106V13.4984V9.53907L18.5474 9.51956C17.0164 9.50431 16.5764 9.52044 16.5486 9.59289ZM28.846 10.6843C27.4404 10.7793 25.9641 11.0426 24.5272 11.4547C24.2029 11.5478 24.155 11.5834 24.2139 11.6883C24.2521 11.7563 24.3864 12.1525 24.5123 12.5686C24.6884 13.151 24.766 13.3157 24.8492 13.2838C25.1549 13.1665 26.4461 12.8643 27.2728 12.7166C28.0957 12.5695 28.4542 12.549 30.2257 12.5472C31.8182 12.5457 32.4172 12.573 33.0754 12.6773C33.5337 12.75 33.927 12.7911 33.9494 12.7688C33.9717 12.7465 34.0621 12.357 34.1502 11.9035C34.2665 11.305 34.2877 11.0653 34.2273 11.0293C34.081 10.942 32.6167 10.7501 31.5325 10.6761C30.3625 10.5962 30.1398 10.5969 28.846 10.6843ZM28.7816 18.5911C28.4606 18.7868 28.354 18.9799 28.2131 19.6208C27.9778 20.6911 27.9878 20.6709 27.6216 20.8206L27.2874 20.9574L26.6104 20.5477C25.381 19.804 25.2694 19.8168 24.2254 20.8226C22.9006 22.0989 22.8619 22.2509 23.5641 23.4217C24.0127 24.1697 24.0143 24.1744 23.9194 24.4622C23.8669 24.6211 23.7713 24.7978 23.707 24.8546C23.6427 24.9115 23.2437 25.0339 22.8202 25.1267C21.5607 25.4027 21.4503 25.6054 21.5144 27.5226C21.5612 28.9224 21.628 29.005 22.9535 29.3019C23.6949 29.468 23.7129 29.477 23.8517 29.749C23.9297 29.9017 23.9934 30.0772 23.9934 30.1389C23.9934 30.2006 23.7955 30.5732 23.5535 30.9667C23.0812 31.735 23.0106 32.0451 23.2184 32.4375C23.3431 32.673 24.8402 34.1605 25.07 34.2772C25.4272 34.4586 25.7448 34.3768 26.5024 33.9086C27.2042 33.4749 27.2402 33.4616 27.5013 33.5398C27.6504 33.5845 27.8233 33.6632 27.8857 33.7148C27.9482 33.7663 28.0756 34.1385 28.1689 34.5418C28.4841 35.9041 28.4747 35.8982 30.3394 35.8982H31.7068L31.9427 35.6599C32.1425 35.4582 32.2093 35.2911 32.3789 34.5687L32.5792 33.7157L32.8897 33.5972C33.0604 33.532 33.2321 33.4788 33.271 33.4791C33.31 33.4794 33.6699 33.6773 34.0708 33.919C34.6728 34.2819 34.8568 34.3585 35.1277 34.3585C35.4495 34.3585 35.4733 34.341 36.3977 33.4264C37.6705 32.1669 37.6809 32.1167 36.9294 30.8573L36.5178 30.1676L36.6548 29.8339L36.7918 29.5L37.6099 29.3013C38.9809 28.9683 39.0243 28.9027 39.0243 27.168C39.0243 25.4739 38.9869 25.4158 37.7006 25.1165C37.3197 25.0278 36.9553 24.9279 36.891 24.8945C36.8266 24.861 36.7178 24.6865 36.6491 24.5068L36.5243 24.1799L36.9343 23.5202C37.6928 22.2998 37.6723 22.1868 36.4755 20.994C35.2783 19.8009 35.2011 19.7866 33.9729 20.5321L33.2841 20.9503L32.9464 20.8119L32.6087 20.6736L32.3853 19.8356C32.2624 19.3747 32.1233 18.9276 32.0762 18.8421C31.8966 18.5163 31.5787 18.4477 30.2513 18.448C29.1561 18.4482 28.9893 18.4645 28.7816 18.5911ZM29.9398 20.5557C29.9005 20.7069 29.8181 21.0271 29.7568 21.2674C29.5877 21.9293 29.4792 22.0299 28.4598 22.4713C27.1862 23.023 27.1204 23.0245 26.2732 22.5202L25.5836 22.1096L25.4117 22.2712C25.3172 22.36 25.2398 22.4686 25.2398 22.5126C25.2398 22.5567 25.4041 22.8561 25.6048 23.1781C25.8922 23.639 25.9702 23.83 25.9714 24.0763C25.9736 24.4883 25.3093 26.1117 25.0344 26.3664C24.8968 26.494 24.618 26.6023 24.1179 26.7225L23.3991 26.8952L23.4213 27.1955L23.4435 27.4958L24.1154 27.6517C25.1274 27.8867 25.0889 27.8481 25.6418 29.1818C26.0819 30.2433 26.0788 30.4167 25.6064 31.1842C25.4048 31.5119 25.2398 31.81 25.2398 31.8466C25.2398 31.8833 25.3219 31.9904 25.4222 32.0846L25.6046 32.256L26.2262 31.8761C26.568 31.6672 26.9433 31.4772 27.06 31.4538C27.2107 31.4237 27.4869 31.498 28.0123 31.7098C29.5994 32.3497 29.5831 32.3348 29.8203 33.3566L29.9762 34.0285L30.269 34.0503L30.5618 34.0722L30.7349 33.3538C30.9606 32.417 31.0711 32.308 32.3101 31.8007C33.4281 31.3429 33.45 31.3437 34.3185 31.876L34.9286 32.2498L35.1352 32.0518L35.3419 31.8538L34.9468 31.1852C34.6931 30.7559 34.5517 30.4336 34.5517 30.2847C34.5517 29.9744 35.2519 28.2866 35.4823 28.0417C35.605 27.9112 35.8258 27.8074 36.1533 27.7263C37.2717 27.4492 37.1913 27.4911 37.1913 27.1845V26.9086L36.5082 26.7439C35.4863 26.4975 35.4458 26.4616 34.9952 25.4028C34.4636 24.1536 34.4535 24.0115 34.8479 23.3436C35.0212 23.0503 35.2067 22.7421 35.2602 22.6588C35.3468 22.5239 35.335 22.4856 35.154 22.3122L34.9505 22.1171L34.3295 22.491C33.9879 22.6967 33.5918 22.8808 33.4492 22.9002C33.0954 22.9482 31.2908 22.2039 31.0515 21.9112C30.9493 21.7861 30.8272 21.4408 30.7278 20.9956L30.5681 20.2807H30.2897C30.0297 20.2807 30.0067 20.2988 29.9398 20.5557ZM12.395 21.1056C11.7992 22.1878 11.6658 22.4717 11.2148 23.6168C10.2422 26.0867 9.82019 28.3496 9.82019 31.0957C9.82019 33.2029 10.0325 34.7709 10.5846 36.7414C10.845 37.671 11.4864 39.335 11.9128 40.1876C12.1511 40.6641 12.7368 41.7258 12.8156 41.8242C12.8391 41.8536 14.3882 40.8843 14.3882 40.8401C14.3882 40.8224 14.3087 40.6819 14.2114 40.5279C13.9142 40.057 13.23 38.6518 12.9303 37.8965C12.0728 35.7358 11.668 33.5548 11.668 31.0957C11.668 28.6365 12.0728 26.4555 12.9303 24.2949C13.2326 23.533 13.9149 22.1332 14.2177 21.6536C14.3183 21.4941 14.3731 21.3386 14.3395 21.3079C14.2761 21.2502 12.8531 20.354 12.8248 20.354C12.816 20.354 12.6226 20.6923 12.395 21.1056ZM6.83086 21.356C5.95781 23.3928 5.24615 26.2553 5.00463 28.7021C4.90755 29.6855 4.90821 32.515 5.00566 33.4892C5.50989 38.5271 7.40159 43.1733 10.5024 46.9896C10.9032 47.4828 11.3953 48.0678 11.5961 48.2896L11.9613 48.6929L12.6212 48.033L13.2811 47.3731L12.9089 46.9698C12.7042 46.748 12.5821 46.6325 12.6376 46.7132C12.7306 46.8485 12.7284 46.8519 12.6084 46.7577C12.5368 46.7016 12.4946 46.6393 12.5145 46.6193C12.5623 46.5717 12.2689 46.1609 12.2029 46.1829C12.1748 46.1923 12.1404 46.167 12.1263 46.1266C12.0653 45.9516 11.9602 45.7995 11.9114 45.8157C11.8824 45.8254 11.8471 45.8003 11.833 45.76C11.7646 45.5637 11.6631 45.4332 11.5912 45.4491C11.5474 45.4588 11.5026 45.4151 11.4919 45.3521C11.4811 45.289 11.2739 44.959 11.0312 44.6188C8.74404 41.4114 7.29777 37.5513 6.87507 33.5256C6.74632 32.2996 6.72843 30.1489 6.83724 28.9693C7.04532 26.7145 7.64092 24.2819 8.5122 22.1294L8.66903 21.7419L8.33909 21.5979C8.15769 21.5187 7.85245 21.3847 7.66093 21.3002C6.93842 20.9813 6.99304 20.9776 6.83086 21.356ZM29.506 24.4279C28.1049 24.805 27.1678 26.2451 27.4247 27.6266C27.7241 29.2367 29.184 30.3023 30.7231 30.0343C32.2231 29.773 33.2391 28.4935 33.1425 26.9873C33.0267 25.1839 31.2759 23.9516 29.506 24.4279ZM54.6052 26.1948C53.5949 26.3831 53.3206 26.4513 53.3543 26.5058C53.4385 26.6421 53.6933 28.7179 53.7642 29.8452C53.9308 32.4952 53.5418 35.5552 52.6964 38.2445C52.0746 40.2225 50.8234 42.7667 49.6707 44.3972C49.4879 44.6558 49.3383 44.91 49.3383 44.9622C49.3383 45.0143 49.3124 45.041 49.2809 45.0215C49.2027 44.9732 49.0614 45.2495 49.127 45.3222C49.1558 45.3541 49.1398 45.3576 49.0914 45.3298C49.0042 45.2798 48.801 45.5532 48.8357 45.6738C48.8453 45.7071 48.8209 45.7144 48.7816 45.6901C48.708 45.6446 48.5114 45.9326 48.5424 46.0404C48.552 46.0737 48.5277 46.081 48.4884 46.0567C48.4247 46.0174 48.2355 46.2661 48.2288 46.3979C48.2274 46.4261 48.1783 46.4921 48.1198 46.5446C48.0276 46.6271 48.0262 46.6202 48.1095 46.4932C48.1624 46.4126 48.0702 46.4951 47.9046 46.6765C47.7389 46.858 47.6033 47.0277 47.6032 47.0536C47.6031 47.0794 47.903 47.3744 48.2696 47.7091L48.9361 48.3176L49.3144 47.8888C51.6966 45.188 53.6137 41.7223 54.5945 38.3437C55.4328 35.456 55.7854 32.4581 55.6081 29.7267C55.5245 28.4401 55.2851 26.5227 55.1721 26.2354C55.1218 26.1074 55.0867 26.1049 54.6052 26.1948ZM29.9796 26.2211C29.1512 26.4723 29.0296 27.6575 29.7903 28.0655C30.0913 28.2269 30.3644 28.2354 30.703 28.0939C31.3744 27.8133 31.4485 26.7132 30.8207 26.3482C30.5571 26.1948 30.2292 26.1453 29.9796 26.2211ZM49.4427 27.2164C48.9825 27.3129 48.5939 27.4041 48.579 27.4189C48.5641 27.4339 48.601 27.7273 48.6609 28.071C49.1804 31.0498 48.8538 34.5768 47.7903 37.4747C47.3829 38.5845 46.5109 40.3074 45.8789 41.2507C45.5682 41.7145 45.3121 42.1337 45.3098 42.1824C45.3075 42.231 45.2816 42.2559 45.2521 42.2378C45.1949 42.2024 45.0779 42.4206 45.1002 42.521C45.1076 42.5542 45.0815 42.5616 45.0422 42.5372C44.9686 42.4918 44.772 42.7798 44.803 42.8876C44.8126 42.9208 44.7891 42.9287 44.7509 42.9051C44.6769 42.8593 44.356 43.2585 44.4175 43.3199C44.4374 43.3398 44.3952 43.4021 44.3236 43.4582C44.2033 43.5527 44.2013 43.5494 44.2976 43.4137C44.3549 43.3331 44.1676 43.5145 43.8815 43.817L43.3612 44.3669L44.0131 45.0237L44.6649 45.6805L44.8595 45.5003C44.9666 45.4012 45.3676 44.9571 45.7507 44.5135C49.7502 39.8828 51.4335 33.9548 50.4925 27.8145C50.4261 27.381 50.3509 27.0296 50.3255 27.0336C50.3001 27.0377 49.9028 27.1199 49.4427 27.2164ZM23.0402 37.11C21.8269 37.3003 20.4959 37.83 19.4278 38.5479C18.4132 39.2298 17.1697 40.6764 16.5685 41.874C16.2776 42.4535 15.9441 43.4632 15.8122 44.1634C15.6709 44.9137 15.6509 46.4096 15.7725 47.1273C15.8453 47.5571 16.1282 48.6264 16.2571 48.9588C16.2944 49.0551 16.2363 49.0882 15.9568 49.1302C15.4677 49.2035 14.8995 49.472 14.533 49.803C14.1554 50.1439 12.814 52.1251 12.7435 52.4458C12.6867 52.7048 12.8248 53.0975 13.04 53.2882C13.2071 53.4362 29.8986 60.3144 30.0908 60.3144C30.165 60.3144 30.2257 60.3477 30.2257 60.3883C30.2257 60.4338 30.2753 60.4381 30.354 60.3997C30.4246 60.3652 31.794 59.6885 33.3971 58.8959L36.3119 57.4548H41.0776H45.8433V56.5383V55.6218H40.8576H35.872L33.0612 57.0266L30.2504 58.4314L22.7043 55.3286C18.5538 53.622 15.1431 52.2131 15.1247 52.1978C15.0624 52.1458 15.3764 51.6383 15.6713 51.3141C15.9009 51.0618 16.0283 50.984 16.2579 50.9556C16.4958 50.9262 17.6585 51.2602 22.4169 52.7253C28.0349 54.455 28.2951 54.5277 28.576 54.4467C28.8152 54.3777 29.226 54.0081 30.802 52.444C31.8651 51.3891 32.8302 50.3973 32.9467 50.24C33.1997 49.8985 33.2237 49.5338 33.0156 49.1925C32.7737 48.7958 32.6652 48.7704 31.0323 48.7272C29.6909 48.6916 29.4909 48.67 29.1736 48.5261C28.602 48.2667 28.1284 47.8749 27.8098 47.3979C27.2911 46.6211 27.1097 46.6765 30.1715 46.6765H32.8301L34.1858 48.0405C34.9315 48.7906 35.6477 49.4505 35.7775 49.5069C35.9718 49.5914 36.8799 49.6094 40.9284 49.6094H45.8433V48.6929V47.7764H41.208H36.5728L35.1406 46.3519C34.1262 45.343 33.6444 44.9135 33.4885 44.8794C33.3676 44.8529 33.2315 44.8201 33.1861 44.8065C33.1407 44.7929 33.0803 44.5953 33.0518 44.3674C32.9104 43.2354 32.2448 41.6387 31.4897 40.6205C29.5082 37.9479 26.2715 36.6033 23.0402 37.11ZM23.5168 38.9138C20.628 39.2749 18.2149 41.5569 17.6463 44.465C17.5227 45.0969 17.5088 46.3206 17.6181 46.938C17.7372 47.6107 18.0248 48.4153 18.3762 49.0595L18.6962 49.6461L23.3795 51.0878L28.0627 52.5295L28.9946 51.6076C29.5072 51.1006 29.9118 50.6618 29.8937 50.6326C29.8757 50.6034 29.7058 50.5563 29.5163 50.5278C29.0311 50.4551 28.241 50.1581 27.7194 49.8523C26.8302 49.3312 26.031 48.3185 25.676 47.2631C25.4573 46.6127 25.3991 45.6134 25.5616 45.2991C25.7931 44.8516 25.8483 44.8435 28.6456 44.8435H31.1789V44.6416C31.1789 44.3858 30.9603 43.6244 30.7142 43.0225C30.2256 41.828 28.9716 40.4251 27.802 39.7646C27.0398 39.3343 26.0746 39.0175 25.2032 38.9117C24.4628 38.8217 24.2511 38.822 23.5168 38.9138ZM23.7367 40.958C21.9477 41.2055 20.4821 42.4212 19.8585 44.1749C19.654 44.75 19.6337 44.8892 19.6323 45.7234C19.6309 46.5407 19.6539 46.7106 19.845 47.2938C20.0587 47.9457 20.5788 48.8395 20.7445 48.8395C20.7925 48.8395 21.1296 48.5801 21.4935 48.2631L22.1552 47.6866L21.969 47.4425C21.8667 47.3083 21.7177 47.0267 21.6379 46.8169C21.086 45.3644 21.7502 43.7311 23.1777 43.0297C23.5522 42.8458 23.6642 42.8271 24.3966 42.8271C25.065 42.8271 25.261 42.8539 25.5409 42.9833L25.8785 43.1395L26.2908 42.4201C26.5174 42.0245 26.7119 41.6595 26.7229 41.6091C26.7339 41.5586 26.5889 41.4424 26.4007 41.3509C25.6914 41.0061 24.5771 40.8418 23.7367 40.958Z" fill="#8FCFD3" stroke="#8FCFD3" stroke-width="0.244406"/>
</svg>
